<?xml version="1.0" encoding="utf-8"?>
<!-- Generator: Adobe Illustrator 21.1.0, SVG Export Plug-In . SVG Version: 6.00 Build 0)  -->
<svg version="1.1" id="Layer_1" xmlns="http://www.w3.org/2000/svg" xmlns:xlink="http://www.w3.org/1999/xlink" x="0px" y="0px"
	 viewBox="0 0 40 40" style="enable-background:new 0 0 40 40;" xml:space="preserve">
<style type="text/css">
	.st0{fill:#A3A3A3;}
</style>
<g>
	<path class="st0" d="M20.2,11.3c-4.6,0-8.4,3.7-8.4,8.4s3.7,8.4,8.4,8.4s8.4-3.8,8.4-8.4S24.8,11.3,20.2,11.3z M20.2,25.1
		c-3,0-5.4-2.4-5.4-5.4s2.4-5.4,5.4-5.4s5.4,2.4,5.4,5.4S23.2,25.1,20.2,25.1z"/>
	<circle class="st0" cx="28.9" cy="11.1" r="1.9"/>
	<path class="st0" d="M33.8,6.1c-1.7-1.8-4.2-2.7-7-2.7H13c-5.3,0-9.5,4.3-9.5,9.5v13.8c0,2.9,0.9,5.3,2.8,7.1
		c1.8,1.7,4.2,2.6,6.9,2.6h13.6c2.9,0,5.3-0.9,7-2.6c1.8-1.7,2.7-4.2,2.7-7.1V13C36.5,10.2,35.6,7.8,33.8,6.1z M33.5,26.7
		c0,2.1-0.7,3.7-1.9,4.9s-2.9,1.7-4.9,1.7H13.2c-2,0-3.7-0.6-4.9-1.7c-1.2-1.2-1.8-2.9-1.8-4.9V13c0-2,0.6-3.7,1.8-4.9
		c1.1-1.1,2.9-1.7,4.9-1.7h13.7c2,0,3.7,0.6,4.9,1.8c1.1,1.2,1.8,2.9,1.8,4.8V26.7L33.5,26.7z"/>
</g>
</svg>
