<?xml version="1.0" encoding="utf-8"?>
<!-- Generator: Adobe Illustrator 15.0.0, SVG Export Plug-In . SVG Version: 6.00 Build 0)  -->
<!DOCTYPE svg PUBLIC "-//W3C//DTD SVG 1.1//EN" "http://www.w3.org/Graphics/SVG/1.1/DTD/svg11.dtd">
<svg version="1.1" id="Layer_1" xmlns="http://www.w3.org/2000/svg" xmlns:xlink="http://www.w3.org/1999/xlink" x="0px" y="0px"
	 width="844px" height="297px" viewBox="0 0 844 297" enable-background="new 0 0 844 297" xml:space="preserve">
<g>
	<defs>
		<rect id="SVGID_1_" x="-31" y="-33.504" width="907.087" height="368.504"/>
	</defs>
	<clipPath id="SVGID_2_">
		<use xlink:href="#SVGID_1_"  overflow="visible"/>
	</clipPath>
	<path clip-path="url(#SVGID_2_)" d="M317.302,180.09c-16.732,0-30.344-13.613-30.344-30.349c0-16.73,13.612-30.341,30.344-30.341
		c16.731,0,30.344,13.611,30.344,30.341C347.646,166.477,334.033,180.09,317.302,180.09 M350.029,123.539
		c-7.875-9.844-19.844-15.719-32.727-15.719c-23.117,0-41.925,18.806-41.925,41.922c0,23.12,18.808,41.928,41.925,41.928
		c12.884,0,24.853-5.875,32.727-15.719v15.01h11.201V2.911h-11.201V123.539z"/>
	<path clip-path="url(#SVGID_2_)" d="M410.475,179.796c-16.73,0-30.341-13.615-30.341-30.349c0-16.73,13.611-30.34,30.341-30.34
		c16.732,0,30.346,13.61,30.346,30.34C440.82,166.181,427.207,179.796,410.475,179.796 M410.475,107.525
		c-12.684,0-24.554,5.748-32.441,15.376v-15.394h-11.198v188.32h11.198V176c7.887,9.628,19.756,15.377,32.441,15.377
		c23.118,0,41.927-18.81,41.927-41.93C452.401,126.331,433.593,107.525,410.475,107.525"/>
	<path clip-path="url(#SVGID_2_)" d="M135.096,180.091c-16.732,0-30.344-13.614-30.344-30.348c0-16.731,13.612-30.342,30.344-30.342
		c16.731,0,30.343,13.611,30.343,30.342C165.439,166.477,151.827,180.091,135.096,180.091 M168.262,124.089
		c-7.847-10.191-19.966-16.27-33.166-16.27c-23.118,0-41.925,18.807-41.925,41.923c0,23.118,18.807,41.927,41.925,41.927
		c13.201,0,25.319-6.078,33.166-16.27v15.561h11.201v-83.405h-11.201V124.089z"/>
	<path clip-path="url(#SVGID_2_)" d="M44.939,179.994c-16.732,0-30.345-13.613-30.345-30.348c0-16.73,13.613-30.341,30.345-30.341
		c16.731,0,30.343,13.611,30.343,30.341C75.283,166.381,61.67,179.994,44.939,179.994 M78.105,123.995
		c-7.848-10.191-19.966-16.27-33.166-16.27c-23.118,0-41.925,18.806-41.925,41.922c0,23.119,18.807,41.928,41.925,41.928
		c13.2,0,25.319-6.078,33.166-16.27v15.562h11.2V62.875h-11.2V123.995z"/>
</g>
<polygon points="219.59,164.715 195.175,107.506 182.923,107.506 219.548,194.415 256.898,107.506 244.521,107.506 "/>
<rect x="259.872" y="107.555" width="11.2" height="83.406"/>
<g>
	<defs>
		<rect id="SVGID_3_" x="-31" y="-33.504" width="907.087" height="368.504"/>
	</defs>
	<clipPath id="SVGID_4_">
		<use xlink:href="#SVGID_3_"  overflow="visible"/>
	</clipPath>
	<path clip-path="url(#SVGID_4_)" d="M797.703,180.089c-16.732,0-30.345-13.614-30.345-30.347c0-16.73,13.612-30.341,30.345-30.341
		c16.731,0,30.344,13.611,30.344,30.341C828.047,166.475,814.435,180.089,797.703,180.089 M830.87,107.555v16.535
		c-7.85-10.192-19.967-16.271-33.167-16.271c-23.117,0-41.924,18.806-41.924,41.923c0,23.12,18.807,41.928,41.924,41.928
		c13.201,0,25.32-6.08,33.167-16.27v15.561h11.2v-83.406H830.87z"/>
	<path clip-path="url(#SVGID_4_)" d="M658.548,125.516c-9.687-17.266-25.272-17.764-27.02-17.764c-0.134,0-0.227,0.002-0.247,0.003
		c-16.241,0.011-24.672,9.384-28.177,14.77c-9.066-13.59-21.546-14.717-25.378-14.717c-0.693,0-1.185,0.034-1.419,0.054
		c-10.322,0.031-17.197,4.345-21.155,7.97v-8.393h-11.2v83.406h11.201l-0.021-52.709c0.604-5.475,3.585-10.04,3.583-10.04
		c7.222-10.202,17.672-9.4,17.931-9.376l0.22,0.011c11.718,0,16.776,8.782,16.981,9.148l0.217,0.323
		c2.153,2.693,3.251,8.304,3.517,10.407l0.132,52.233h11.196l-0.043-52.43c0.423-5.526,3.526-10.323,3.524-10.323
		c6.049-8.599,14.379-9.527,17.678-9.527c0.521,0,0.837,0.025,0.879,0.029l0.234,0.013c9.268,0,16.162,9.295,16.229,9.386
		l0.232,0.272c1.727,1.726,2.952,7.08,3.338,10.148v52.435h10.589v-52.316l-0.007-0.168
		C660.928,129.824,658.942,126.167,658.548,125.516"/>
	<path clip-path="url(#SVGID_4_)" d="M498.05,179.336c-16.629,0-30.157-13.53-30.157-30.163c0-16.627,13.528-30.155,30.157-30.155
		c16.632,0,30.162,13.528,30.162,30.155C528.212,165.806,514.682,179.336,498.05,179.336 M498.05,107.506
		c-22.976,0-41.667,18.692-41.667,41.667c0,22.978,18.691,41.672,41.667,41.672c22.979,0,41.673-18.694,41.673-41.672
		C539.723,126.199,521.028,107.506,498.05,107.506"/>
	<path clip-path="url(#SVGID_4_)" d="M709.76,179.89c-16.731,0-30.344-13.613-30.344-30.348c0-16.73,13.612-30.341,30.344-30.341
		c16.732,0,30.346,13.611,30.346,30.341C740.105,166.276,726.492,179.89,709.76,179.89 M709.76,107.618
		c-12.684,0-24.555,5.748-32.441,15.376v-15.616h-11.199v133.479h11.199v-64.762c7.886,9.627,19.756,15.375,32.441,15.375
		c23.117,0,41.926-18.81,41.926-41.929C751.686,126.424,732.877,107.618,709.76,107.618"/>
</g>
</svg>
