<?xml version="1.0" encoding="utf-8"?>
<!-- Generator: Adobe Illustrator 21.1.0, SVG Export Plug-In . SVG Version: 6.00 Build 0)  -->
<svg version="1.1" id="Layer_1" xmlns="http://www.w3.org/2000/svg" xmlns:xlink="http://www.w3.org/1999/xlink" x="0px" y="0px"
	 viewBox="0 0 40 40" style="enable-background:new 0 0 40 40;" xml:space="preserve">
<style type="text/css">
	.st0{fill:#A3A3A3;}
</style>
<g id="Social">
	<g id="GitHub">
	</g>
	<g id="Soundcloud_3_">
	</g>
	<g id="Dropbox_2_">
	</g>
	<g id="Instagram_7_">
	</g>
	<g id="WordPress_3_">
	</g>
	<g id="PlayStation">
	</g>
	<g id="XBox_2_">
	</g>
	<g id="Windows_2_">
	</g>
	<g id="iOS_1_">
	</g>
	<g id="Apple_2_">
	</g>
	<g id="Android_2_">
	</g>
	<g id="Deviantart_2_">
	</g>
	<g id="Yelp_2_">
	</g>
	<g id="Picassa_6_">
	</g>
	<g id="LastFM_2_">
	</g>
	<g id="Amazon_3_">
	</g>
	<g id="AIM_2_">
	</g>
	<g id="fffound_1_">
	</g>
	<g id="Forrst_3_">
	</g>
	<g id="Yahoo_3_">
	</g>
	<g id="YouTube_3_">
	</g>
	<g id="Behance_2_">
	</g>
	<g id="Tumblr_2_">
	</g>
	<g id="Vimeo_2_">
	</g>
	<g id="Skype_3_">
	</g>
	<g id="Pinterest_2_">
		<path class="st0" d="M19.9,4.9C11.7,4.9,5,11.7,5,19.9c0,6.1,3.7,11.5,9.1,13.7c0-1,0-2.2,0.2-3.4c0.2-1.2,2-8.2,2-8.2
			s-0.5-1-0.5-2.4c0-2.2,1.2-3.9,2.9-3.9c1.4,0,2,1,2,2.2c0,1.4-0.9,3.4-1.4,5.4c-0.4,1.6,0.7,2.9,2.4,2.9c2.9,0,4.7-3.6,4.7-8
			c0-3.2-2.2-5.7-6.2-5.7c-4.6,0-7.3,3.4-7.3,7.2c0,1.2,0.4,2.2,1,3c0.2,0.4,0.4,0.5,0.2,0.9c-0.1,0.2-0.2,1-0.2,1.2
			c-0.1,0.4-0.4,0.5-0.7,0.4C11,24.4,10,22.1,10,19.5c0-4.2,3.6-9.3,10.7-9.3c5.7,0,9.5,4.1,9.5,8.6c0,5.9-3.2,10.3-8.1,10.3
			c-1.6,0-3.1-0.9-3.6-1.9c0,0-0.9,3.5-1,4.1c-0.4,1.1-0.9,2.2-1.5,3.1c1.2,0.4,2.7,0.6,4.1,0.6c8.2,0,14.9-6.7,14.9-14.9
			C34.9,11.7,28.2,4.9,19.9,4.9z"/>
	</g>
	<g id="LinkedIn_1_">
	</g>
	<g id="Dribbble_3_">
	</g>
	<g id="Flickr_3_">
	</g>
	<g id="Google_Plus_2_">
	</g>
	<g id="RSS_2_">
	</g>
	<g id="Twitter_2_">
	</g>
	<g id="Facebook_2_">
	</g>
</g>
<g id="Lockup">
</g>
</svg>
